<?xml version="1.0" encoding="UTF-8" standalone="no"?>
<svg
   viewBox="0 0 256.14982 256.59457"
   width="67.772972mm"
   height="67.890648mm"
   version="1.1"
   id="svg3598"
   sodipodi:docname="icono.svg"
   inkscape:version="1.2.2 (b0a8486541, 2022-12-01)"
   xmlns:inkscape="http://www.inkscape.org/namespaces/inkscape"
   xmlns:sodipodi="http://sodipodi.sourceforge.net/DTD/sodipodi-0.dtd"
   xmlns="http://www.w3.org/2000/svg"
   xmlns:svg="http://www.w3.org/2000/svg">
  <defs
     id="defs3602" />
  <sodipodi:namedview
     id="namedview3600"
     pagecolor="#ffffff"
     bordercolor="#000000"
     borderopacity="0.25"
     inkscape:showpageshadow="2"
     inkscape:pageopacity="0.0"
     inkscape:pagecheckerboard="true"
     inkscape:deskcolor="#d1d1d1"
     showgrid="false"
     inkscape:zoom="2.4254675"
     inkscape:cx="33.189478"
     inkscape:cy="181.40833"
     inkscape:window-width="2880"
     inkscape:window-height="1740"
     inkscape:window-x="0"
     inkscape:window-y="28"
     inkscape:window-maximized="1"
     inkscape:current-layer="svg3598"
     inkscape:document-units="mm" />
  <path
     d="m 128.05231,192.09517 c 5.32802,3.4837 11.7688,7.56896 17.47581,10.9491 5.70482,3.38234 11.88338,7.28471 17.72481,10.8235 5.84143,3.53659 11.96711,7.18556 17.74905,10.77283 5.78194,3.58506 11.3898,6.91893 17.31937,10.4423 5.92957,3.52557 11.08571,7.11945 17.37445,10.73536 6.28654,3.61591 10.45332,7.17894 17.8482,9.25242 7.39709,2.07348 17.26869,-0.0375 20.92207,-7.29352 3.65116,-7.25827 -0.11459,-15.61388 -3.29421,-21.03224 -3.17962,-5.42056 -5.55277,-10.85435 -8.55612,-16.56357 -3.00335,-5.71143 -6.13449,-11.90982 -9.47497,-18.2889 -3.34048,-6.37688 -5.98025,-12.22051 -9.06733,-18.0355 -3.08488,-5.81499 -6.28653,-12.18746 -9.0475,-17.83278 -2.76096,-5.64532 -6.05076,-10.92266 -8.92851,-16.97783 -2.87774,-6.05517 -6.08381,-11.65862 -9.03427,-17.62785 -2.94826,-5.97144 -6.25348,-12.20509 -9.12021,-17.84821 -2.86673,-5.643115 -6.42315,-12.74714 -9.60939,-18.729594 -3.18403,-5.984657 -5.27513,-10.889607 -8.43272,-16.783921 -3.15539,-5.896518 -5.77092,-11.217927 -8.81393,-17.187159 -3.04301,-5.969233 -6.67655,-13.152584 -9.72176,-18.692137 -3.04521,-5.541757 -5.89872,-12.870538 -8.82274,-17.627855 C 139.61839,9.7922962 137.01387,1.231769 129.20914,0.12782457 121.4022,-0.97611986 116.71099,7.8047555 113.75832,13.630762 c -2.95266,5.826006 -6.05517,12.011179 -9.21496,18.119231 -3.162,6.105849 -6.301958,12.520184 -9.153263,17.949564 -2.851306,5.429379 -5.471246,10.935881 -8.597987,16.962404 -3.126741,6.026523 -6.3284,12.352719 -9.571925,18.632642 -3.245729,6.27772 -6.134494,12.189662 -8.94834,17.713787 -2.80944,5.52634 -5.819396,11.0725 -8.681719,16.87868 -2.864526,5.80397 -6.112459,11.57048 -9.155467,17.94736 -3.043009,6.37908 -6.511289,12.08169 -9.378019,17.8482 -2.86673,5.76651 -5.400734,11.08572 -8.390859,16.82579 -2.990125,5.74007 -5.823803,11.33911 -9.076142,17.58599 -3.252339,6.24687 -6.187377,12.61493 -9.287676,18.47619 -3.100299,5.86126 -6.1190696,12.07949 -9.1620781,17.62345 -3.0430085,5.54176 -6.8594392,12.61934 -4.22407484,20.76341 2.63756784,8.14187 12.92342094,11.00199 20.55848594,8.6685 7.635065,-2.33129 12.006773,-5.66075 18.273476,-9.41548 6.264499,-3.75473 10.955712,-6.77791 16.96681,-10.35637 6.008895,-3.58065 10.97334,-6.88588 17.110037,-10.5062 6.136697,-3.62252 12.253563,-7.61743 18.366022,-11.35234 6.112459,-3.73269 12.720699,-7.5337 18.436529,-11.12097 5.71363,-3.58947 11.79084,-7.17674 17.42514,-10.77943 M 127.39126,30.139248 c 2.68164,1.092927 3.31404,3.961861 4.60748,6.191784 1.29125,2.229924 2.03382,4.210854 3.39116,6.522307 1.35735,2.313656 2.50316,5.299374 3.58727,7.066566 1.08191,1.767193 2.28722,4.819015 3.48371,7.046735 1.19869,2.22772 2.22111,4.19543 3.422,6.462813 1.20311,2.265179 2.24535,4.552393 3.14437,6.427556 0.89902,1.875163 2.48553,4.257127 3.39337,6.279924 0.90783,2.020593 2.21229,4.239499 3.2325,6.390097 1.02022,2.150599 2.37976,4.431202 3.53659,6.817573 1.15463,2.388575 1.82889,3.589472 3.21929,6.255685 1.3926,2.66401 2.30704,4.583242 3.49031,6.868252 1.18327,2.28501 2.63757,5.05699 3.74372,7.05114 1.10835,1.99415 1.70549,4.0456 2.91521,6.12128 1.2075,2.07347 2.26518,4.18661 3.17521,6.3284 0.91004,2.14398 2.86894,4.26373 3.46828,6.42755 0.59935,2.16382 3.90237,5.18259 3.032,7.26488 -0.87038,2.08229 -4.53036,2.9086 -6.38349,4.41358 -1.85313,1.50277 -4.58545,2.534 -6.61045,3.96626 -2.02279,1.43447 -4.09407,2.41502 -6.13449,3.7922 -2.04043,1.37717 -4.72206,2.74113 -6.69418,4.09407 -1.97212,1.35293 -4.43561,2.48773 -6.59943,3.85168 -2.16602,1.36396 -4.3673,2.78741 -6.53332,4.16679 -2.16602,1.37938 -4.3673,2.35552 -6.35705,3.58947 -1.98974,1.23615 -5.0019,3.40879 -7.08199,4.56561 -2.08229,1.15463 -3.69744,2.13958 -5.59904,3.43744 -1.90381,1.29785 -5.30379,2.85791 -7.13929,4.09847 -1.83329,1.24056 -3.9244,2.47672 -6.06618,3.84728 -2.14399,1.37057 -4.24611,2.4018 -6.28433,3.66219 -2.03822,1.26039 -4.30561,2.82266 -6.3901,3.93762 -2.084494,1.11717 -4.477475,2.93504 -6.641294,4.15356 -2.166023,1.21853 -3.95525,2.41943 -6.138901,3.77677 -2.181447,1.35955 -4.261534,2.4062 -6.467219,3.89135 -2.203482,1.48294 -4.501714,2.58028 -6.533324,3.85169 -2.033814,1.27361 -4.640533,3.00775 -6.647905,4.12932 -2.005169,1.12157 -4.435609,2.86232 -6.471626,4.09407 -2.038221,1.22954 -4.530359,2.46129 -6.564173,3.79219 -2.03161,1.33311 -4.021354,2.43705 -6.086017,3.82965 -2.066866,1.39261 -4.581039,2.38197 -6.621463,4.03017 -2.042628,1.646 -4.561208,1.91703 -6.390098,3.70185 -1.831093,1.78703 -6.469422,2.93504 -6.019912,-0.54205 0.44951,-3.4771 2.265179,-4.5546 3.256746,-7.10183 0.991567,-2.54942 1.769396,-3.59608 2.794015,-5.82821 1.026823,-2.23433 2.37315,-4.1183 3.422008,-6.46281 1.048857,-2.3445 2.168226,-4.18 3.267763,-6.20721 1.097334,-2.0294 1.855332,-4.26814 3.117927,-6.35704 1.264799,-2.0867 2.044831,-4.45544 3.135555,-6.35044 1.090723,-1.89279 1.842111,-3.61811 2.992328,-5.59243 1.152421,-1.97653 2.278401,-5.10767 3.49913,-7.1503 1.220729,-2.04263 1.928046,-3.99491 3.040805,-6.16975 1.114961,-2.17704 3.186234,-5.64532 4.265941,-7.82236 1.081909,-2.17484 1.410228,-3.43523 2.564852,-5.61888 1.154625,-2.18586 2.86673,-5.07462 3.946437,-7.26047 1.079706,-2.18586 2.007372,-4.38714 3.261153,-6.43417 1.253781,-2.04704 1.894994,-4.43781 3.104706,-6.46722 1.211915,-2.0272 2.058052,-4.09848 3.243525,-6.1367 1.18327,-2.03822 1.661425,-3.801 2.840288,-5.7621 1.178863,-1.9611 2.31586,-4.73088 3.435229,-6.94097 1.121572,-2.21009 2.381964,-4.20204 3.422007,-6.46281 1.040043,-2.26078 3.139962,-5.7599 4.109494,-7.86423 0.969532,-2.102122 1.800244,-3.754733 2.941648,-5.797361 1.141404,-2.042628 2.285011,-4.858678 3.391159,-6.96741 1.103944,-2.106528 2.146191,-3.840669 3.303016,-6.169749 1.15683,-2.32908 2.2123,-4.40476 3.39557,-6.522307 1.18547,-2.117546 1.74295,-4.098476 2.95707,-6.086017 1.21412,-1.98754 2.10873,-4.46205 3.12674,-6.337213 1.01801,-1.875164 2.33569,-4.138139 3.43523,-6.482644 1.09733,-2.344505 2.50316,-4.821219 3.52337,-6.830794 1.02241,-2.009576 2.63757,-5.169369 3.79219,-7.445565 1.15242,-2.278401 1.74736,-3.712867 2.97029,-5.918553 1.22294,-2.203482 2.44807,-5.162758 4.05661,-7.106229 m 63.46028,124.276382 c 1.87737,-0.007 2.23433,3.24352 3.2876,4.64494 1.05547,1.39921 1.9655,3.93321 2.90639,5.46684 0.94089,1.53582 1.53362,3.24352 2.60011,4.89393 1.06428,1.65041 1.56447,3.53659 2.5296,5.21123 0.96732,1.67685 1.87736,3.27217 2.84469,5.05699 0.96953,1.78262 1.94347,3.82305 2.79402,5.58142 0.84834,1.75618 1.92143,3.11573 2.80503,4.90716 0.8858,1.79363 1.67465,3.45506 2.61553,5.17157 0.93869,1.71651 1.87076,3.55642 2.80283,5.27293 0.93428,1.71431 2.08229,4.01915 2.86893,5.72465 0.78885,1.70549 1.90381,2.83808 2.74334,4.7485 0.83953,1.91042 1.72092,3.25454 2.50315,4.9997 0.78224,1.74516 2.05806,3.32726 2.68164,5.01953 0.62359,1.69228 3.23251,4.64054 1.96551,6.50468 -1.2648,1.86635 -4.64715,-0.85936 -6.0133,-1.57549 -1.36837,-0.71392 -3.70406,-2.54061 -5.2509,-3.34268 -1.54685,-0.80427 -3.2237,-2.13738 -4.89173,-3.04301 -1.66804,-0.90342 -3.41319,-2.19026 -5.10106,-3.26996 -1.68787,-1.08191 -3.67541,-1.89059 -5.28836,-2.96148 -1.61295,-1.0731 -3.24132,-2.18145 -4.77494,-3.06284 -1.53363,-0.8814 -3.44845,-2.10213 -5.13632,-3.23472 -1.68787,-1.13038 -3.86931,-2.07347 -5.47345,-3.12013 -1.60634,-1.04445 -3.70185,-2.35331 -5.42277,-3.39115 -1.72092,-1.03784 -3.3537,-2.21671 -5.11648,-3.25675 -1.76279,-1.04004 -3.54541,-2.05585 -5.33243,-3.26115 -1.78482,-1.20531 -3.77456,-2.09331 -5.28395,-3.09149 -1.51159,-0.99818 -2.98131,-1.95228 -4.66477,-2.92182 -1.68566,-0.96953 -3.73711,-2.31806 -5.40294,-3.53438 -1.66363,-1.21632 -3.39116,-1.34192 -5.27293,-3.1003 -1.87957,-1.76058 1.59532,-3.97288 3.08488,-4.71545 1.48955,-0.74478 3.42641,-1.98975 5.15614,-2.99674 1.72753,-1.00699 3.56524,-2.25196 5.29938,-3.36912 1.73634,-1.11717 3.58506,-2.03822 5.36107,-3.15759 1.7738,-1.11937 3.36912,-2.26298 5.29276,-3.30082 1.92144,-1.03784 3.54981,-2.47671 5.33243,-3.4815 1.78482,-1.00258 3.19284,-1.93465 5.05038,-2.88215 1.85974,-0.9453 3.64015,-3.12454 5.90092,-3.13335 z"
     id="path3570"
     style="fill:#ffffff;fill-opacity:1;stroke:#000000;stroke-width:0.0661045;stroke-opacity:1" />
  <path
     d="m 128.20236,192.26176 c 5.32941,3.48461 11.77186,7.57093 17.48036,10.95195 5.70629,3.38322 11.88646,7.2866 17.72941,10.82631 5.84294,3.53751 11.97021,7.18742 17.75365,10.77562 5.78344,3.586 11.39276,6.92073 17.32387,10.44501 5.93111,3.52649 11.08859,7.1213 17.37896,10.73816 6.28817,3.61685 10.45604,7.1808 17.85284,9.25482 7.39901,2.07401 17.27317,-0.0375 20.9275,-7.29542 3.65211,-7.26015 -0.11461,-15.61793 -3.29506,-21.0377 -3.18045,-5.42197 -5.55422,-10.85717 -8.55835,-16.56787 -3.00412,-5.71291 -6.13608,-11.91291 -9.47743,-18.29365 -3.34135,-6.37853 -5.9818,-12.22368 -9.06968,-18.04018 -3.08568,-5.8165 -6.28817,-12.19063 -9.04985,-17.83741 -2.76168,-5.64679 -6.05233,-10.9255 -8.93083,-16.98224 -2.87849,-6.05674 -6.08539,-11.66165 -9.03662,-17.63243 -2.94902,-5.97299 -6.2551,-12.20826 -9.12258,-17.85284 -2.86747,-5.644583 -6.42481,-12.750453 -9.61188,-18.73446 -3.18486,-5.986211 -5.2765,-10.892435 -8.43491,-16.78828 -3.15621,-5.898049 -5.77242,-11.220839 -8.81622,-17.191622 -3.0438,-5.970782 -6.67828,-13.155999 -9.72429,-18.696991 -3.046,-5.543196 -5.90025,-12.87388 -8.82503,-17.632433 C 139.77144,9.9115516 137.16625,1.3488014 129.35949,0.24457031 121.55053,-0.8596608 116.8581,7.9234948 113.90466,13.751014 c -2.95343,5.827519 -6.05674,12.014299 -9.21735,18.123937 -3.16282,6.107434 -6.303595,12.523435 -9.155641,17.954224 -2.852046,5.43079 -5.472667,10.938721 -8.60022,16.966809 -3.127552,6.028088 -6.330043,12.355927 -9.574411,18.637481 -3.246571,6.27935 -6.136086,12.192828 -8.950663,17.718395 -2.810169,5.52776 -5.820907,11.07537 -8.683973,16.88305 -2.865271,5.80548 -6.114046,11.57349 -9.157845,17.95202 -3.043799,6.38074 -6.51298,12.08483 -9.380454,17.85284 -2.867475,5.76801 -5.402137,11.0886 -8.393038,16.83016 -2.990902,5.74156 -5.825315,11.34206 -9.078499,17.59055 -3.253184,6.2485 -6.188984,12.61821 -9.290088,18.481 -3.101104,5.86278 -6.1206586,12.08262 -9.1644573,17.62802 -3.0437987,5.5432 -6.8612204,12.62262 -4.2251717,20.7688 2.6382528,8.14398 12.926777,11.00484 20.563825,8.67075 7.637047,-2.33189 12.009891,-5.66221 18.27822,-9.41792 6.266126,-3.75571 10.958557,-6.77967 16.971217,-10.35906 6.010456,-3.58158 10.976189,-6.88767 17.11448,-10.50893 6.138291,-3.62346 12.256745,-7.61941 18.370791,-11.35528 6.114046,-3.73367 12.724008,-7.53566 18.441318,-11.12386 5.71511,-3.59041 11.7939,-7.17861 17.42966,-10.78224 M 127.54115,30.263787 c 2.68233,1.093211 3.31489,3.962889 4.60867,6.193392 1.29158,2.230503 2.03435,4.211948 3.39204,6.524 1.3577,2.314257 2.50381,5.30075 3.5882,7.068402 1.08219,1.767651 2.28781,4.820266 3.48461,7.048565 1.19901,2.228299 2.22169,4.196519 3.4229,6.46449 1.20341,2.265768 2.24593,4.553576 3.14518,6.429226 0.89926,1.87565 2.48618,4.258233 3.39425,6.281554 0.90807,2.021118 2.21287,4.240601 3.23334,6.391757 1.02048,2.151157 2.38038,4.432353 3.53751,6.819344 1.15493,2.389194 1.82937,3.590404 3.22012,6.257309 1.39297,2.664702 2.30765,4.584434 3.49123,6.870034 1.18357,2.28561 2.63825,5.05831 3.74468,7.05298 1.10864,1.99467 1.70594,4.04664 2.91597,6.12286 1.20782,2.07401 2.26576,4.1877 3.17604,6.33004 0.91027,2.14455 2.86968,4.26485 3.46918,6.42923 0.5995,2.16438 3.90338,5.18393 3.03278,7.26676 -0.8706,2.08284 -4.53154,2.90936 -6.38515,4.41472 -1.85361,1.50317 -4.58663,2.53467 -6.61216,3.9673 -2.02332,1.43484 -4.09513,2.41564 -6.13608,3.79318 -2.04096,1.37753 -4.72329,2.74184 -6.69592,4.09513 -1.97263,1.35329 -4.43676,2.48838 -6.60114,3.85269 -2.16659,1.36431 -4.36844,2.78813 -6.53502,4.16786 -2.16659,1.37974 -4.36844,2.35614 -6.3587,3.59041 -1.99026,1.23647 -5.0032,3.40967 -7.08383,4.5668 -2.08283,1.15492 -3.6984,2.14013 -5.6005,3.43832 -1.9043,1.29819 -5.30516,2.85866 -7.14114,4.09954 -1.83377,1.24089 -3.92542,2.47736 -6.06776,3.84828 -2.14454,1.37092 -4.24721,2.40242 -6.28596,3.66314 -2.03875,1.26072 -4.30672,2.82339 -6.391757,3.93864 -2.085035,1.11746 -4.478637,2.9358 -6.643019,4.15465 -2.166585,1.21884 -3.956277,2.42005 -6.140494,3.77775 -2.182014,1.3599 -4.262641,2.40682 -6.468899,3.89235 -2.204054,1.48333 -4.502883,2.58095 -6.53502,3.85269 -2.034342,1.27394 -4.641738,3.00854 -6.649632,4.1304 -2.005689,1.12186 -4.436761,2.86306 -6.473307,4.09513 -2.03875,1.22986 -4.531535,2.46193 -6.565877,3.79318 -2.032138,1.33345 -4.022399,2.43768 -6.087597,3.83064 -2.067403,1.39297 -4.582229,2.38259 -6.623183,4.03122 -2.043158,1.64643 -4.562392,1.91753 -6.391757,3.70281 -1.831569,1.78749 -6.471102,2.9358 -6.021475,-0.5422 0.449627,-3.47799 2.265767,-4.55578 3.257592,-7.10366 0.991824,-2.55009 1.769855,-3.59702 2.79474,-5.82973 1.027089,-2.23491 2.373766,-4.11937 3.422896,-6.46449 1.04913,-2.34511 2.168789,-4.18109 3.268612,-6.20882 1.097619,-2.02993 1.855814,-4.26925 3.118737,-6.35869 1.265127,-2.08724 2.045362,-4.4566 3.136369,-6.35209 1.091007,-1.89328 1.842589,-3.61905 2.993105,-5.59389 1.152721,-1.97703 2.278992,-5.10899 3.500038,-7.15215 1.221046,-2.04316 1.928548,-3.99595 3.041595,-6.17135 1.115251,-2.17761 3.187062,-5.64679 4.267049,-7.8244 1.08219,-2.1754 1.410594,-3.43612 2.565519,-5.62033 1.154924,-2.18643 2.867474,-5.07594 3.947461,-7.26236 1.079986,-2.18642 2.007893,-4.38827 3.262,-6.43584 1.254106,-2.04757 1.895486,-4.43897 3.105512,-6.4689 1.21223,-2.02773 2.058586,-4.09954 3.244367,-6.13829 1.183578,-2.03875 1.661857,-3.80199 2.841026,-5.7636 1.179169,-1.96161 2.316461,-4.73211 3.436121,-6.94277 1.121863,-2.21067 2.382582,-4.20313 3.422896,-6.46449 1.040313,-2.26136 3.140777,-5.7614 4.11056,-7.86627 0.969784,-2.102669 1.800713,-3.75571 2.942413,-5.798868 1.1417,-2.043158 2.285604,-4.859939 3.392039,-6.969219 1.104231,-2.107075 2.146749,-3.841666 3.30388,-6.171351 1.15713,-2.329685 2.21287,-4.405904 3.39644,-6.524 1.18579,-2.118096 1.74341,-4.099541 2.95784,-6.087598 1.21444,-1.988057 2.10928,-4.463209 3.12756,-6.338859 1.01827,-1.87565 2.3363,-4.139214 3.43612,-6.484328 1.09762,-2.345113 2.5038,-4.82247 3.52428,-6.832567 1.02268,-2.010098 2.63825,-5.170711 3.79318,-7.447499 1.15272,-2.278992 1.74781,-3.713831 2.97106,-5.920089 1.22325,-2.204054 2.44871,-5.164099 4.05767,-7.108075 M 191.0179,154.57244 c 1.87786,-0.007 2.23492,3.24437 3.28845,4.64614 1.05574,1.39958 1.96602,3.93424 2.90715,5.46826 0.94113,1.53623 1.53402,3.24437 2.60078,4.89521 1.06456,1.65083 1.56488,3.5375 2.53026,5.21258 0.96758,1.67729 1.87785,3.27303 2.84543,5.05831 0.96979,1.78308 1.94398,3.82403 2.79474,5.58287 0.84856,1.75663 1.92194,3.11653 2.80576,4.90843 0.88603,1.7941 1.67508,3.45595 2.61622,5.17291 0.93892,1.71696 1.87124,3.55734 2.80355,5.2743 0.93452,1.71476 2.08283,4.0202 2.86968,5.72614 0.78905,1.70593 1.9043,2.83882 2.74405,4.74973 0.83974,1.91092 1.72136,3.25539 2.5038,5.001 0.78244,1.74561 2.05859,3.32812 2.68234,5.02084 0.62375,1.69271 3.23335,4.64173 1.96601,6.50636 -1.26512,1.86684 -4.64835,-0.85958 -6.01486,-1.57589 -1.36872,-0.71412 -3.70501,-2.54128 -5.25226,-3.34356 -1.54725,-0.80447 -3.22453,-2.13793 -4.893,-3.04379 -1.66847,-0.90367 -3.41408,-2.19083 -5.10239,-3.27082 -1.6883,-1.08219 -3.67636,-1.89108 -5.28973,-2.96225 -1.61336,-1.07337 -3.24216,-2.18201 -4.77618,-3.06363 -1.53402,-0.88163 -3.44935,-2.10267 -5.13765,-3.23556 -1.68831,-1.13068 -3.87032,-2.07401 -5.47487,-3.12094 -1.60676,-1.04472 -3.70281,-2.35393 -5.42418,-3.39204 -1.72136,-1.0381 -3.35457,-2.21727 -5.11781,-3.25759 -1.76325,-1.04031 -3.54633,-2.05638 -5.33381,-3.262 -1.78529,-1.20561 -3.77555,-2.09385 -5.28532,-3.09229 -1.51199,-0.99843 -2.98209,-1.95279 -4.66599,-2.92257 -1.6861,-0.96978 -3.73807,-2.31867 -5.40434,-3.5353 -1.66406,-1.21664 -3.39204,-1.34227 -5.2743,-3.10111 -1.88006,-1.76104 1.59574,-3.97391 3.08568,-4.71667 1.48994,-0.74497 3.4273,-1.99026 5.15748,-2.99752 1.72798,-1.00725 3.56616,-2.25254 5.30075,-3.37 1.7368,-1.11745 3.586,-2.03875 5.36247,-3.15841 1.77426,-1.11965 3.37,-2.26356 5.29413,-3.30167 1.92194,-1.03811 3.55074,-2.47736 5.33382,-3.4824 1.78528,-1.00285 3.19367,-1.93516 5.05169,-2.88291 1.86022,-0.94554 3.64109,-3.12535 5.90245,-3.13416 z"
     id="path3586"
     style="fill:#ffffff;fill-opacity:1;stroke-width:0.220405" />
</svg>
